<svg xmlns="http://www.w3.org/2000/svg" version="1.1" xmlns:xlink="http://www.w3.org/1999/xlink" xmlns:svgjs="http://svgjs.com/svgjs" width="2560" height="1440" preserveAspectRatio="none" viewBox="0 0 2560 1440"><g mask="url(&quot;#SvgjsMask1095&quot;)" fill="none"><rect width="2560" height="1440" x="0" y="0" fill="url(#SvgjsLinearGradient1096)"></rect><path d="M146 1440L1586 0L2655.5 0L1215.5 1440z" fill="url(#SvgjsLinearGradient1097)"></path><path d="M874.8000000000001 1440L2314.8 0L3516.3 0L2076.3 1440z" fill="url(#SvgjsLinearGradient1097)"></path><path d="M2499 1440L1059 0L381 0L1821 1440z" fill="url(#SvgjsLinearGradient1098)"></path><path d="M1634.1999999999998 1440L194.19999999999982 0L-683.3000000000002 0L756.6999999999998 1440z" fill="url(#SvgjsLinearGradient1098)"></path><path d="M1474.4172007074294 1440L2560 354.4172007074294L2560 1440z" fill="url(#SvgjsLinearGradient1097)"></path><path d="M0 1440L1085.5827992925706 1440L 0 354.4172007074294z" fill="url(#SvgjsLinearGradient1098)"></path></g><defs><mask id="SvgjsMask1095"><rect width="2560" height="1440" fill="#ffffff"></rect></mask><linearGradient x1="10.94%" y1="-19.44%" x2="89.06%" y2="119.44%" gradientUnits="userSpaceOnUse" id="SvgjsLinearGradient1096"><stop stop-color="#0e2a47" offset="0"></stop><stop stop-color="#00459e" offset="1"></stop></linearGradient><linearGradient x1="0%" y1="100%" x2="100%" y2="0%" id="SvgjsLinearGradient1097"><stop stop-color="rgba(15, 70, 185, 0.2)" offset="0"></stop><stop stop-opacity="0" stop-color="rgba(15, 70, 185, 0.2)" offset="0.66"></stop></linearGradient><linearGradient x1="100%" y1="100%" x2="0%" y2="0%" id="SvgjsLinearGradient1098"><stop stop-color="rgba(15, 70, 185, 0.2)" offset="0"></stop><stop stop-opacity="0" stop-color="rgba(15, 70, 185, 0.2)" offset="0.66"></stop></linearGradient></defs></svg>