<svg xmlns="http://www.w3.org/2000/svg" version="1.1" xmlns:xlink="http://www.w3.org/1999/xlink" xmlns:svgjs="http://svgjs.com/svgjs" width="1440" height="560" preserveAspectRatio="none" viewBox="0 0 1440 560"><g mask="url(&quot;#SvgjsMask1515&quot;)" fill="none"><rect width="1440" height="560" x="0" y="0" fill="url(#SvgjsLinearGradient1516)"></rect><path d="M1440 0L1399.23 0L1440 109.18z" fill="rgba(255, 255, 255, .1)"></path><path d="M1399.23 0L1440 109.18L1440 258.85L1103.31 0z" fill="rgba(255, 255, 255, .075)"></path><path d="M1103.31 0L1440 258.85L1440 364.78000000000003L735.9399999999999 0z" fill="rgba(255, 255, 255, .05)"></path><path d="M735.94 0L1440 364.78000000000003L1440 400.94000000000005L533.08 0z" fill="rgba(255, 255, 255, .025)"></path><path d="M0 560L719.06 560L0 382.41999999999996z" fill="rgba(0, 0, 0, .1)"></path><path d="M0 382.41999999999996L719.06 560L965.3599999999999 560L0 312.10999999999996z" fill="rgba(0, 0, 0, .075)"></path><path d="M0 312.11L965.3599999999999 560L1176.9599999999998 560L0 152.36z" fill="rgba(0, 0, 0, .05)"></path><path d="M0 152.36L1176.9599999999998 560L1213.1799999999998 560L0 97.10000000000002z" fill="rgba(0, 0, 0, .025)"></path></g><defs><mask id="SvgjsMask1515"><rect width="1440" height="560" fill="#ffffff"></rect></mask><linearGradient x1="15.28%" y1="-39.29%" x2="84.72%" y2="139.29%" gradientUnits="userSpaceOnUse" id="SvgjsLinearGradient1516"><stop stop-color="rgba(14, 62, 71, 1)" offset="0"></stop><stop stop-color="rgba(158, 91, 0, 1)" offset="1"></stop></linearGradient></defs></svg>